<svg width="129" height="30" viewBox="0 0 129 30" fill="none" xmlns="http://www.w3.org/2000/svg">
<path d="M19.6392 15.4855C19.6531 14.4149 19.9388 13.3652 20.4697 12.434C21.0007 11.5029 21.7596 10.7205 22.6759 10.1598C22.0938 9.33222 21.3259 8.65119 20.4331 8.17076C19.5403 7.69033 18.5473 7.42374 17.5329 7.39214C15.369 7.16606 13.2712 8.68102 12.1685 8.68102C11.0445 8.68102 9.34677 7.41459 7.51858 7.45203C6.33606 7.49006 5.1836 7.83235 4.17348 8.44554C3.16337 9.05874 2.33006 9.92193 1.75474 10.951C-0.737431 15.246 1.1215 21.5581 3.50879 25.0298C4.7032 26.7298 6.09913 28.6287 7.92566 28.5614C9.71304 28.4876 10.3806 27.4269 12.5381 27.4269C14.6756 27.4269 15.3019 28.5614 17.1655 28.5186C19.0834 28.4876 20.2918 26.811 21.4443 25.0949C22.3025 23.8836 22.9629 22.5449 23.401 21.1282C22.2867 20.6591 21.3358 19.8739 20.6669 18.8705C19.9979 17.867 19.6405 16.6898 19.6392 15.4855V15.4855Z" fill="#07152A"/>
<path d="M16.1201 5.10918C17.1658 3.85958 17.681 2.25344 17.5562 0.631836C15.9586 0.798867 14.4828 1.55893 13.4229 2.76058C12.9047 3.34762 12.5078 4.03057 12.255 4.77038C12.0021 5.51019 11.8982 6.29236 11.9491 7.07217C12.7483 7.08036 13.5388 6.90795 14.2613 6.56793C14.9838 6.22791 15.6193 5.72913 16.1201 5.10918Z" fill="#07152A"/>
<path d="M42.2328 20.8555H36.1333L34.6685 25.1607H32.085L37.8623 9.23242H40.5465L46.3238 25.1607H43.6963L42.2328 20.8555ZM36.765 18.8688H41.5998L39.2164 11.8817H39.1497L36.765 18.8688Z" fill="#07152A"/>
<path d="M58.8022 19.3556C58.8022 22.9644 56.8617 25.283 53.9334 25.283C53.1916 25.3216 52.4539 25.1515 51.8047 24.7922C51.1555 24.4328 50.6211 23.8988 50.2627 23.2512H50.2072V29.0032H47.8125V13.5485H50.1305V15.48H50.1746C50.5495 14.8355 51.0929 14.3042 51.7471 13.9427C52.4012 13.5812 53.1416 13.4029 53.8894 13.4269C56.8504 13.427 58.8022 15.7568 58.8022 19.3556ZM56.3408 19.3556C56.3408 17.0044 55.1201 15.4587 53.2577 15.4587C51.4279 15.4587 50.1972 17.037 50.1972 19.3556C50.1972 21.6955 51.4279 23.2625 53.2577 23.2625C55.1201 23.2625 56.3408 21.728 56.3408 19.3556Z" fill="#07152A"/>
<path d="M71.643 19.3556C71.643 22.9644 69.7026 25.283 66.7742 25.283C66.0325 25.3216 65.2947 25.1515 64.6455 24.7922C63.9963 24.4328 63.4619 23.8988 63.1035 23.2512H63.0481V29.0032H60.6533V13.5484H62.9713V15.48H63.0153C63.3903 14.8355 63.9337 14.3042 64.5879 13.9427C65.242 13.5812 65.9824 13.4029 66.7302 13.4269C69.6912 13.4269 71.643 15.7568 71.643 19.3556ZM69.1816 19.3556C69.1816 17.0044 67.9609 15.4587 66.0985 15.4587C64.2688 15.4587 63.038 17.037 63.038 19.3556C63.038 21.6955 64.2688 23.2625 66.0985 23.2625C67.9609 23.2625 69.1816 21.728 69.1816 19.3556H69.1816Z" fill="#07152A"/>
<path d="M80.1282 20.7227C80.3056 22.3022 81.8472 23.3393 83.9537 23.3393C85.9722 23.3393 87.4244 22.3022 87.4244 20.8779C87.4244 19.6416 86.5486 18.9013 84.4747 18.394L82.4009 17.8967C79.4625 17.1902 78.0984 15.8224 78.0984 13.6027C78.0984 10.8545 80.5044 8.9668 83.921 8.9668C87.3023 8.9668 89.6203 10.8545 89.6984 13.6027H87.2809C87.1362 12.0132 85.8161 11.0537 83.887 11.0537C81.9579 11.0537 80.6378 12.0244 80.6378 13.4374C80.6378 14.5635 81.4809 15.2261 83.5435 15.7334L85.3065 16.1643C88.5897 16.9372 89.9538 18.2499 89.9538 20.5798C89.9538 23.5597 87.5691 25.4261 83.7763 25.4261C80.2275 25.4261 77.8315 23.6036 77.6768 20.7225L80.1282 20.7227Z" fill="#07152A"/>
<path d="M95.1239 10.7998V13.548H97.3424V15.4357H95.1239V21.8379C95.1239 22.8324 95.5681 23.2959 96.5434 23.2959C96.8067 23.2913 97.0697 23.2729 97.3311 23.2408V25.1172C96.8926 25.1987 96.447 25.2357 96.001 25.2274C93.639 25.2274 92.7178 24.3443 92.7178 22.0921V15.4357H91.0215V13.548H92.7178V10.7998H95.1239Z" fill="#07152A"/>
<path d="M98.6279 19.3552C98.6279 15.7013 100.79 13.4053 104.161 13.4053C107.544 13.4053 109.696 15.7013 109.696 19.3552C109.696 23.0191 107.555 25.3051 104.161 25.3051C100.768 25.3051 98.6279 23.0191 98.6279 19.3552ZM107.256 19.3552C107.256 16.8487 106.102 15.3694 104.161 15.3694C102.221 15.3694 101.068 16.86 101.068 19.3552C101.068 21.8717 102.221 23.3398 104.161 23.3398C106.102 23.3398 107.256 21.8717 107.256 19.3552H107.256Z" fill="#07152A"/>
<path d="M111.667 13.5483H113.951V15.525H114.006C114.161 14.9076 114.524 14.3621 115.035 13.98C115.546 13.5979 116.174 13.4025 116.813 13.4268C117.089 13.4259 117.364 13.4557 117.633 13.5158V15.7454C117.285 15.6394 116.921 15.5908 116.557 15.6014C116.209 15.5873 115.862 15.6484 115.54 15.7804C115.219 15.9123 114.929 16.1121 114.692 16.3659C114.455 16.6197 114.276 16.9216 114.167 17.2509C114.058 17.5801 114.022 17.9288 114.062 18.2732V25.1613H111.667L111.667 13.5483Z" fill="#07152A"/>
<path d="M128.673 21.7502C128.351 23.8583 126.289 25.3051 123.65 25.3051C120.256 25.3051 118.149 23.0416 118.149 19.4103C118.149 15.7677 120.267 13.4053 123.549 13.4053C126.777 13.4053 128.807 15.6124 128.807 19.1335V19.9502H120.567V20.0942C120.529 20.5216 120.583 20.9522 120.725 21.3573C120.866 21.7624 121.093 22.1328 121.39 22.444C121.687 22.7551 122.047 22.9997 122.446 23.1618C122.845 23.3238 123.275 23.3994 123.705 23.3836C124.271 23.4364 124.839 23.3059 125.325 23.0116C125.81 22.7173 126.187 22.2749 126.4 21.7502L128.673 21.7502ZM120.578 18.2842H126.411C126.432 17.8999 126.374 17.5154 126.239 17.1547C126.104 16.794 125.896 16.4649 125.627 16.1881C125.358 15.9114 125.035 15.6929 124.677 15.5464C124.32 15.3999 123.936 15.3285 123.549 15.3368C123.159 15.3345 122.773 15.4091 122.412 15.5563C122.051 15.7034 121.723 15.9203 121.447 16.1943C121.17 16.4683 120.952 16.7941 120.802 17.1528C120.653 17.5115 120.577 17.896 120.578 18.2842V18.2842Z" fill="#07152A"/>
</svg>
