<svg width="137" height="34" viewBox="0 0 137 34" fill="none" xmlns="http://www.w3.org/2000/svg">
<path d="M115.135 24.5409H117.268V10.6046H115.135V24.5409ZM134.346 15.6248L131.901 21.6668H131.828L129.29 15.6248H126.993L130.798 24.0696L128.628 28.767H130.854L136.718 15.6248H134.346ZM122.25 22.958C121.551 22.958 120.577 22.6174 120.577 21.7744C120.577 20.6987 121.791 20.2864 122.838 20.2864C123.776 20.2864 124.216 20.4836 124.787 20.7528C124.621 22.0435 123.481 22.958 122.25 22.958ZM122.507 15.3199C120.963 15.3199 119.364 15.9835 118.702 17.4537L120.595 18.2245C121 17.4537 121.753 17.2024 122.544 17.2024C123.647 17.2024 124.768 17.8482 124.787 18.9957V19.1389C124.4 18.9238 123.574 18.6011 122.562 18.6011C120.522 18.6011 118.444 19.6945 118.444 21.7386C118.444 23.6033 120.117 24.8047 121.992 24.8047C123.426 24.8047 124.216 24.1772 124.714 23.4422H124.787V24.5178H126.845V19.1746C126.845 16.7008 124.952 15.3199 122.507 15.3199ZM109.326 17.3213H106.292V12.5443H109.326C110.92 12.5443 111.826 13.8319 111.826 14.9327C111.826 16.0127 110.92 17.3213 109.326 17.3213ZM109.271 10.6046H104.16V24.5409H106.292V19.2609H109.271C111.635 19.2609 113.959 17.5917 113.959 14.9327C113.959 12.2738 111.635 10.6046 109.271 10.6046ZM81.4022 22.9605C79.9287 22.9605 78.695 21.7573 78.695 20.1048C78.695 18.4348 79.9287 17.2133 81.4022 17.2133C82.857 17.2133 83.9987 18.4348 83.9987 20.1048C83.9987 21.7573 82.857 22.9605 81.4022 22.9605ZM83.8513 16.4051H83.7776C83.299 15.8485 82.3778 15.3456 81.2179 15.3456C78.787 15.3456 76.559 17.4288 76.559 20.1048C76.559 22.7629 78.787 24.8282 81.2179 24.8282C82.3778 24.8282 83.299 24.3253 83.7776 23.7509H83.8513V24.4333C83.8513 26.2475 82.857 27.2172 81.2549 27.2172C79.9475 27.2172 79.1372 26.301 78.8053 25.5289L76.9457 26.2832C77.4797 27.5403 78.8978 29.085 81.2549 29.085C83.7593 29.085 85.877 27.6479 85.877 24.1459V15.633H83.8513V16.4051ZM87.3501 24.5409H89.4862V10.6042H87.3501V24.5409ZM92.6353 19.9432C92.58 18.1112 94.0901 17.1776 95.1764 17.1776C96.0241 17.1776 96.7419 17.5904 96.9808 18.1835L92.6353 19.9432ZM99.2647 18.3629C98.86 17.303 97.6255 15.3456 95.1027 15.3456C92.5983 15.3456 90.5176 17.2673 90.5176 20.0869C90.5176 22.745 92.58 24.8282 95.3421 24.8282C97.5707 24.8282 98.86 23.4992 99.3938 22.7271L97.7364 21.6493C97.1843 22.4397 96.4287 22.9605 95.3421 22.9605C94.2557 22.9605 93.4824 22.4755 92.985 21.5239L99.4853 18.9016L99.2647 18.3629ZM47.4752 16.8004V18.8118H52.4103C52.2629 19.9432 51.8762 20.7693 51.2869 21.3441C50.5689 22.0447 49.4456 22.8168 47.4752 22.8168C44.4366 22.8168 42.0612 20.4283 42.0612 17.465C42.0612 14.5016 44.4366 12.1127 47.4752 12.1127C49.1142 12.1127 50.3108 12.7415 51.1949 13.5497L52.6496 12.131C51.4159 10.9813 49.7768 10.1013 47.4752 10.1013C43.3132 10.1013 39.8145 13.406 39.8145 17.465C39.8145 21.5239 43.3132 24.8282 47.4752 24.8282C49.7219 24.8282 51.4159 24.1102 52.7417 22.7629C54.1044 21.4338 54.5281 19.5661 54.5281 18.0577C54.5281 17.5904 54.4914 17.1597 54.4174 16.8004H47.4752ZM60.1389 22.9605C58.6654 22.9605 57.3947 21.7752 57.3947 20.0869C57.3947 18.3807 58.6654 17.2133 60.1389 17.2133C61.6118 17.2133 62.8825 18.3807 62.8825 20.0869C62.8825 21.7752 61.6118 22.9605 60.1389 22.9605ZM60.1389 15.3456C57.45 15.3456 55.2585 17.3391 55.2585 20.0869C55.2585 22.8168 57.45 24.8282 60.1389 24.8282C62.8272 24.8282 65.0187 22.8168 65.0187 20.0869C65.0187 17.3391 62.8272 15.3456 60.1389 15.3456ZM70.7843 22.9605C69.3114 22.9605 68.0406 21.7752 68.0406 20.0869C68.0406 18.3807 69.3114 17.2133 70.7843 17.2133C72.2574 17.2133 73.5281 18.3807 73.5281 20.0869C73.5281 21.7752 72.2574 22.9605 70.7843 22.9605ZM70.7843 15.3456C68.0955 15.3456 65.9045 17.3391 65.9045 20.0869C65.9045 22.8168 68.0955 24.8282 70.7843 24.8282C73.4728 24.8282 75.6642 22.8168 75.6642 20.0869C75.6642 17.3391 73.4728 15.3456 70.7843 15.3456Z" fill="#07152A"/>
<path d="M0.841013 32.9131L0.745744 32.8223C0.372624 32.4294 0.152344 31.8192 0.152344 31.029V31.215V2.98837C0.152344 2.98582 0.152344 2.9839 0.152344 2.98186C0.152344 2.98429 0.152344 2.98633 0.152344 2.98888V3.17535C0.152344 2.31972 0.409167 1.67519 0.839473 1.28873L16.7257 17.1014L0.841013 32.9131ZM0.152344 2.98033C0.152344 2.91001 0.154267 2.84172 0.157857 2.77446C0.154267 2.84121 0.152344 2.91001 0.152344 2.98033ZM0.157857 2.7714C0.157857 2.77051 0.157856 2.76949 0.158241 2.76846C0.157856 2.76949 0.157857 2.77051 0.157857 2.7714ZM0.158241 2.76247C0.158241 2.76196 0.158241 2.76145 0.158241 2.76094C0.158241 2.76145 0.158241 2.76196 0.158241 2.76247Z" fill="url(#paint0_linear_6609:19979)"/>
<path d="M22.0211 22.5605L22.1419 22.4923L28.4156 18.944C29.0137 18.6056 29.4124 18.1952 29.6112 17.761C29.4129 18.1952 29.0141 18.6061 28.4156 18.9445L22.1419 22.4928L22.0211 22.5605V22.5605ZM22.0227 22.3736L16.7266 17.1009L22.0222 11.8292L28.4156 15.4447C29.2275 15.9039 29.6833 16.4957 29.7595 17.1004C29.7595 17.1009 29.7595 17.102 29.7595 17.1028C29.6833 17.7062 29.2275 18.2985 28.4156 18.7576L22.0227 22.3736" fill="url(#paint1_linear_6609:19979)"/>
<path d="M1.97548 33.5127C1.53172 33.5127 1.14449 33.3691 0.842535 33.0979L0.84305 33.0974C1.14501 33.3686 1.53274 33.5127 1.97651 33.5127C2.01498 33.5127 2.05409 33.5117 2.09371 33.5098C2.05357 33.5117 2.01395 33.5127 1.97548 33.5127V33.5127ZM1.976 33.3257C1.53223 33.3262 1.14501 33.1821 0.84305 32.9109V32.9105L16.7277 17.0989L22.0238 22.3715L3.41244 32.8975C2.89751 33.1881 2.40964 33.3257 1.976 33.3257V33.3257ZM0.838562 33.0945C0.810482 33.0691 0.782914 33.0421 0.755859 33.0142L0.838562 33.0945Z" fill="url(#paint2_linear_6609:19979)"/>
<path d="M16.7299 17.0986L0.84375 1.28594C1.14571 1.01524 1.53242 0.871656 1.97567 0.871656C2.41047 0.871656 2.89873 1.00975 3.41468 1.30088L22.0255 11.8269L16.7299 17.0986ZM22.1453 11.7078L3.41468 1.11453C2.89873 0.823284 2.41047 0.68519 1.97567 0.68519C1.97362 0.68519 1.97221 0.68519 1.97016 0.68519C1.97273 0.68519 1.97465 0.68519 1.97772 0.68519C2.41149 0.68519 2.89924 0.822773 3.41468 1.11402L22.1453 11.7078Z" fill="url(#paint3_linear_6609:19979)"/>
<path d="M2.09495 33.5107C2.49807 33.4878 2.9444 33.3497 3.41369 33.085L22.0235 22.5595L3.41369 33.085C2.94479 33.3502 2.49807 33.4878 2.09495 33.5107ZM0.843778 33.0989L0.839804 33.0954C0.841214 33.0965 0.842752 33.0979 0.843778 33.0989ZM0.757102 33.0152L0.749023 33.0072V33.0067C0.752101 33.0097 0.754537 33.0126 0.757102 33.0152Z" fill="#07152A"/>
<path d="M22.0225 22.5605L22.1434 22.4923L22.0225 22.5605Z" fill="url(#paint4_linear_6609:19979)"/>
<path d="M1.97678 33.5137C1.53301 33.5137 1.14527 33.3696 0.843316 33.0984L0.842801 33.0989C0.841775 33.0979 0.840238 33.0964 0.838827 33.0954L0.756125 33.0151C0.753561 33.0126 0.751124 33.0097 0.748047 33.0067L0.843316 32.9119C1.14527 33.1831 1.5325 33.3272 1.97627 33.3267C2.4099 33.3267 2.89778 33.1891 3.41271 32.8985L22.0241 22.3725L22.1433 22.4912L22.0225 22.5595L3.41271 33.085C2.94343 33.3497 2.49709 33.4878 2.09397 33.5107C2.05435 33.5126 2.01524 33.5137 1.97678 33.5137Z" fill="url(#paint5_linear_6609:19979)"/>
<path d="M0.74667 33.0049C0.372968 32.6119 0.152344 32.0017 0.152344 31.2116V31.211C0.152344 32.0017 0.372968 32.6114 0.74667 33.0044V33.0049Z" fill="#07152A"/>
<path d="M0.745744 33.0049C0.372624 32.6119 0.152344 32.0022 0.152344 31.2116V31.0256C0.152344 31.8158 0.372624 32.426 0.745744 32.8189L0.841013 32.9097L0.745744 33.0049Z" fill="url(#paint6_linear_6609:19979)"/>
<path d="M0.748047 33.0059L0.843467 32.9106V32.911L0.748047 33.0059Z" fill="url(#paint7_linear_6609:19979)"/>
<path d="M29.6123 17.7559C29.7111 17.5404 29.7608 17.3191 29.7608 17.0977C29.7608 17.0973 29.7608 17.0968 29.7608 17.0968C29.7608 17.3186 29.7111 17.5399 29.6123 17.7559Z" fill="#07152A"/>
<path d="M22.1437 22.4922L22.0244 22.3735L28.4173 18.7575C29.2292 18.2984 29.685 17.7061 29.7612 17.1028C29.7612 17.3242 29.7116 17.5455 29.613 17.7609C29.4141 18.1951 29.0155 18.6055 28.4173 18.944L22.1437 22.4922Z" fill="url(#paint8_linear_6609:19979)"/>
<path d="M29.7596 17.0986V17.0981C29.7591 16.4305 29.3109 15.763 28.4158 15.2564L22.1421 11.7082H22.1416L22.1421 11.7078L28.4158 15.2559C29.3119 15.7625 29.7607 16.431 29.7596 17.0986Z" fill="#07152A"/>
<path d="M29.7617 17.0957C29.6855 16.491 29.2297 15.8992 28.4178 15.44L22.0244 11.8245L22.1437 11.7058H22.1442L28.4178 15.254C29.3129 15.7606 29.7612 16.4281 29.7617 17.0957Z" fill="url(#paint9_linear_6609:19979)"/>
<path d="M0.152344 2.97949C0.152344 2.97898 0.152344 2.97847 0.152344 2.97796C0.152344 2.97847 0.152344 2.97898 0.152344 2.97949ZM0.157857 2.77209C0.157857 2.77107 0.157857 2.77005 0.157857 2.76903C0.157857 2.77005 0.157857 2.77107 0.157857 2.77209ZM0.158241 2.7661C0.158241 2.76405 0.158241 2.76214 0.158241 2.7601C0.158241 2.76214 0.158241 2.76405 0.158241 2.7661ZM0.158241 2.75857C0.23248 1.44743 0.948716 0.690071 1.96191 0.685604C1.52263 0.688157 1.14002 0.83174 0.840498 1.1004V1.09989L0.836908 1.10346C0.805366 1.1318 0.775363 1.16179 0.745744 1.19268C0.409167 1.5471 0.196835 2.07805 0.158241 2.75857Z" fill="#07152A"/>
<path d="M0.152344 3.17285V2.98638C0.152344 2.98383 0.152344 2.98179 0.152344 2.97937C0.152344 2.97886 0.152344 2.97835 0.152344 2.97784C0.152344 2.90751 0.154267 2.83872 0.157857 2.77197C0.157857 2.77095 0.157857 2.76993 0.157857 2.76891C0.157857 2.76801 0.157856 2.76699 0.158241 2.76597C0.158241 2.76393 0.158241 2.76201 0.158241 2.75997C0.158241 2.75946 0.158241 2.75895 0.158241 2.75844C0.196835 2.07792 0.409168 1.54698 0.745746 1.19255L0.839475 1.28623C0.409168 1.67269 0.152344 2.31722 0.152344 3.17285ZM0.83691 1.10333L0.8405 1.09976C0.839475 1.10129 0.837936 1.10231 0.83691 1.10333Z" fill="url(#paint10_linear_6609:19979)"/>
<path d="M22.0236 11.8262L3.41271 1.30016C2.89675 1.00904 2.40849 0.870944 1.9737 0.870944C1.53044 0.870944 1.14373 1.01453 0.841776 1.28523L0.748047 1.19155C0.777666 1.16066 0.807669 1.13067 0.839211 1.10234C0.840237 1.10131 0.841775 1.1003 0.842801 1.09927C1.14232 0.830613 1.52493 0.68703 1.96421 0.684477C1.96524 0.684477 1.96665 0.684477 1.96819 0.684477C1.97024 0.684477 1.97165 0.684477 1.9737 0.684477C2.40849 0.684477 2.89675 0.822571 3.41271 1.11382L22.1433 11.7071L22.1428 11.7075L22.0236 11.8262Z" fill="url(#paint11_linear_6609:19979)"/>
<defs>
<linearGradient id="paint0_linear_6609:19979" x1="15.317" y1="2.69061" x2="-6.10221" y2="24.2089" gradientUnits="userSpaceOnUse">
<stop stop-color="#00A0FF"/>
<stop offset="0.00657445" stop-color="#00A1FF"/>
<stop offset="0.2601" stop-color="#00BEFF"/>
<stop offset="0.5122" stop-color="#00D2FF"/>
<stop offset="0.7604" stop-color="#00DFFF"/>
<stop offset="1" stop-color="#00E3FF"/>
</linearGradient>
<linearGradient id="paint1_linear_6609:19979" x1="30.7487" y1="17.1017" x2="-0.276658" y2="17.1017" gradientUnits="userSpaceOnUse">
<stop stop-color="#FFE000"/>
<stop offset="0.4087" stop-color="#FFBD00"/>
<stop offset="0.7754" stop-color="#FFA500"/>
<stop offset="1" stop-color="#FF9C00"/>
</linearGradient>
<linearGradient id="paint2_linear_6609:19979" x1="19.2005" y1="20.0284" x2="-9.84552" y2="49.2087" gradientUnits="userSpaceOnUse">
<stop stop-color="#FF3A44"/>
<stop offset="1" stop-color="#C31162"/>
</linearGradient>
<linearGradient id="paint3_linear_6609:19979" x1="-3.27377" y1="-8.20346" x2="9.69647" y2="4.82674" gradientUnits="userSpaceOnUse">
<stop stop-color="#32A071"/>
<stop offset="0.0685" stop-color="#2DA771"/>
<stop offset="0.4762" stop-color="#15CF74"/>
<stop offset="0.8009" stop-color="#06E775"/>
<stop offset="1" stop-color="#00F076"/>
</linearGradient>
<linearGradient id="paint4_linear_6609:19979" x1="30.7636" y1="17.1017" x2="-0.310097" y2="17.1017" gradientUnits="userSpaceOnUse">
<stop stop-color="#CCB300"/>
<stop offset="0.4087" stop-color="#CC9700"/>
<stop offset="0.7754" stop-color="#CC8400"/>
<stop offset="1" stop-color="#CC7D00"/>
</linearGradient>
<linearGradient id="paint5_linear_6609:19979" x1="19.2008" y1="20.0293" x2="-9.84525" y2="49.2097" gradientUnits="userSpaceOnUse">
<stop stop-color="#CC2E36"/>
<stop offset="1" stop-color="#9C0E4E"/>
</linearGradient>
<linearGradient id="paint6_linear_6609:19979" x1="15.317" y1="2.6871" x2="-6.10226" y2="24.2054" gradientUnits="userSpaceOnUse">
<stop stop-color="#008DE0"/>
<stop offset="0.00657445" stop-color="#008DE0"/>
<stop offset="0.2601" stop-color="#00A7E0"/>
<stop offset="0.5122" stop-color="#00B8E0"/>
<stop offset="0.7604" stop-color="#00C4E0"/>
<stop offset="1" stop-color="#00C7E0"/>
</linearGradient>
<linearGradient id="paint7_linear_6609:19979" x1="19.2303" y1="20.0276" x2="-9.81751" y2="49.2543" gradientUnits="userSpaceOnUse">
<stop stop-color="#E0333C"/>
<stop offset="1" stop-color="#AB0F56"/>
</linearGradient>
<linearGradient id="paint8_linear_6609:19979" x1="30.7504" y1="17.1016" x2="-0.274917" y2="17.1016" gradientUnits="userSpaceOnUse">
<stop stop-color="#E0C500"/>
<stop offset="0.4087" stop-color="#E0A600"/>
<stop offset="0.7754" stop-color="#E09100"/>
<stop offset="1" stop-color="#E08900"/>
</linearGradient>
<linearGradient id="paint9_linear_6609:19979" x1="30.7509" y1="17.097" x2="-0.274387" y2="17.097" gradientUnits="userSpaceOnUse">
<stop stop-color="#FFE840"/>
<stop offset="0.4087" stop-color="#FFCE40"/>
<stop offset="0.7754" stop-color="#FFBC40"/>
<stop offset="1" stop-color="#FFB540"/>
</linearGradient>
<linearGradient id="paint10_linear_6609:19979" x1="15.317" y1="2.68811" x2="-6.10218" y2="24.2064" gradientUnits="userSpaceOnUse">
<stop stop-color="#40B8FF"/>
<stop offset="0.00657445" stop-color="#40B9FF"/>
<stop offset="0.2601" stop-color="#40CEFF"/>
<stop offset="0.5122" stop-color="#40DDFF"/>
<stop offset="0.7604" stop-color="#40E7FF"/>
<stop offset="1" stop-color="#40EAFF"/>
</linearGradient>
<linearGradient id="paint11_linear_6609:19979" x1="-3.27575" y1="-8.20417" x2="9.69449" y2="4.82603" gradientUnits="userSpaceOnUse">
<stop stop-color="#65B895"/>
<stop offset="0.0685" stop-color="#62BD95"/>
<stop offset="0.4762" stop-color="#50DB97"/>
<stop offset="0.8009" stop-color="#44ED98"/>
<stop offset="1" stop-color="#40F498"/>
</linearGradient>
</defs>
</svg>
